<svg width="1200" height="390" viewBox="0 0 1200 390" fill="none" xmlns="http://www.w3.org/2000/svg">
<path d="M435.404 222.227H448.707V248.431H427.745C403.758 248.431 389.044 233.717 389.044 209.73V163.37H369.492V156.92L412.426 111.366H418.07V139.585H448.103V163.37H418.473V205.699C418.473 216.18 424.52 222.227 435.404 222.227Z" fill="black"/>
<path d="M520.402 138.981H530.077V166.797H517.177C500.648 166.797 494.198 174.255 494.198 191.992V248.431H464.77V139.585H483.515L488.756 153.09C496.617 143.415 506.292 138.981 520.402 138.981Z" fill="black"/>
<path d="M542.821 125.073V97.8613H572.048V125.073H542.821ZM542.821 248.431V139.585H572.25V248.431H542.821Z" fill="black"/>
<path d="M685.153 139.585H707.124V248.431H684.146L681.525 238.554C672.253 246.818 660.159 251.656 646.251 251.656C613.598 251.656 589.208 226.863 589.208 194.008C589.208 161.153 613.598 136.562 646.251 136.562C660.361 136.562 672.656 141.601 682.13 149.865L685.153 139.585ZM648.67 223.84C665.803 223.84 678.3 211.141 678.3 194.008C678.3 176.875 665.803 164.176 648.67 164.176C631.537 164.176 619.04 176.875 619.04 194.008C619.04 210.94 631.537 223.84 648.67 223.84Z" fill="black"/>
<path d="M819.483 139.585L838.43 139.787V235.934C838.43 269.998 817.266 290.76 782.798 290.76C753.369 290.76 732.406 275.642 727.367 250.85H756.594C760.021 260.726 771.51 265.766 782.395 265.766C797.311 265.766 809.606 256.09 809.606 240.167V236.135C800.939 242.182 790.256 245.811 778.565 245.811C748.129 245.811 724.344 221.824 724.344 191.186C724.344 160.75 748.129 136.562 778.565 136.562C792.675 136.562 805.172 141.803 814.645 150.47L819.483 139.585ZM781.992 219.405C798.117 219.405 809.808 207.513 809.808 191.388C809.808 175.061 798.117 163.169 781.992 163.169C765.866 163.169 754.176 175.061 754.176 191.388C754.176 207.513 765.866 219.405 781.992 219.405Z" fill="black"/>
<path d="M968.419 193.807C968.419 196.629 968.218 199.45 967.815 202.272H885.374C887.995 217.188 897.67 225.452 911.981 225.452C922.261 225.452 930.727 220.615 935.161 212.754H966.001C958.14 236.539 937.378 251.656 911.981 251.656C879.932 251.656 855.543 226.662 855.543 194.008C855.543 161.355 879.73 136.562 911.981 136.562C945.441 136.562 968.419 162.362 968.419 193.807ZM911.981 161.758C898.879 161.758 889.607 169.417 886.181 182.317H938.991C934.758 169.014 925.284 161.758 911.981 161.758Z" fill="black"/>
<path d="M982.529 248.431V216.987H1013.77V248.431H982.529Z" fill="black"/>
<path d="M1124.13 139.585H1146.1V248.431H1123.12L1120.5 238.554C1111.23 246.818 1099.13 251.656 1085.22 251.656C1052.57 251.656 1028.18 226.863 1028.18 194.008C1028.18 161.153 1052.57 136.562 1085.22 136.562C1099.33 136.562 1111.63 141.601 1121.1 149.865L1124.13 139.585ZM1087.64 223.84C1104.78 223.84 1117.27 211.141 1117.27 194.008C1117.27 176.875 1104.78 164.176 1087.64 164.176C1070.51 164.176 1058.01 176.875 1058.01 194.008C1058.01 210.94 1070.51 223.84 1087.64 223.84Z" fill="black"/>
<path d="M1170.57 125.073V97.8613H1199.8V125.073H1170.57ZM1170.57 248.431V139.585H1200V248.431H1170.57Z" fill="black"/>
<path fill-rule="evenodd" clip-rule="evenodd" d="M167.972 0V81.7945H280.441V167.972H169.429V264.372H169.437V278.978H280.436V295.223L185.674 389.985H185.504V389.987L58.4291 389.986V278.979L58.4216 278.979V262.734L153.183 167.972H0V143.391L143.391 0H167.972Z" fill="#2ECC71"/>
</svg>
